<svg xmlns="http://www.w3.org/2000/svg" xmlns:xlink="http://www.w3.org/1999/xlink" version="1.1" id="Layer_1" x="0px" y="0px" width="100%" viewBox="0 0 600 600" enable-background="new 0 0 600 600" xml:space="preserve">
<path fill="#00000000" opacity="1.000000" stroke="none" d=" M342.000000,601.000000   C228.000000,601.000000 114.500000,601.000000 1.000000,601.000000   C1.000000,401.000000 1.000000,201.000000 1.000000,1.000000   C201.000000,1.000000 401.000000,1.000000 601.000000,1.000000   C601.000000,201.000000 601.000000,401.000000 601.000000,601.000000   C514.833313,601.000000 428.666656,601.000000 342.000000,601.000000  M279.507538,525.004700   C290.552185,537.270813 314.179535,536.451965 324.633484,520.566528   C332.489166,508.629211 339.180573,495.932159 346.747711,483.796204   C351.541351,476.108215 357.068054,468.700562 366.488495,466.352234   C371.998688,464.978668 377.772675,464.421234 383.463745,464.060028   C401.735138,462.900299 420.041870,462.258698 438.298645,460.920959   C452.237366,459.899658 464.668182,454.041382 476.450562,446.957123   C488.704590,439.589264 499.010010,429.866852 507.764069,418.628998   C515.294861,408.961548 521.245728,398.224213 524.863281,386.531311   C529.792419,370.599091 531.053528,354.045227 530.969116,337.437073   C530.723022,289.020172 530.493835,240.601898 529.873352,192.189102   C529.739258,181.728882 528.500732,171.208984 526.858765,160.861328   C524.972595,148.975037 521.494812,137.507538 515.074890,127.049095   C508.687195,116.643158 501.072327,107.426537 491.924225,99.307945   C481.905518,90.416786 470.783752,83.355133 458.159698,79.206856   C439.502045,73.075943 419.943939,71.391441 400.515411,71.185493   C349.036804,70.639793 297.548370,70.914238 246.064316,71.045860   C227.637894,71.092972 209.201965,71.388062 190.791275,72.105873   C180.152588,72.520676 169.480118,73.515434 158.960068,75.138550   C147.393143,76.923203 136.278091,80.366989 125.977638,86.375954   C114.364906,93.150444 104.387634,101.712318 95.688438,111.840508   C87.446846,121.435921 80.956596,132.165161 77.113503,144.210464   C70.985672,163.416779 69.260353,183.431854 69.179306,203.367767   C68.973648,253.948044 69.417671,304.535889 70.209480,355.111145   C70.368324,365.257050 72.524979,375.534241 74.998978,385.441620   C78.355408,398.882721 85.797943,410.355347 94.489876,421.131165   C107.466316,437.218781 123.542625,448.828705 142.714264,456.317474   C158.556168,462.505615 175.347031,462.734955 191.937286,463.904480   C203.662048,464.730957 215.470551,464.350555 227.200653,465.127869   C233.550003,465.548615 240.031418,467.185791 244.117126,472.724457   C250.490402,481.364197 256.562256,490.233490 262.555267,499.144440   C268.176331,507.502350 273.529205,516.040588 279.507538,525.004700  z"/>
<path fill="#077EFF" opacity="1.000000" stroke="none" d=" M279.253815,524.752075   C273.529205,516.040588 268.176331,507.502350 262.555267,499.144440   C256.562256,490.233490 250.490402,481.364197 244.117126,472.724457   C240.031418,467.185791 233.550003,465.548615 227.200653,465.127869   C215.470551,464.350555 203.662048,464.730957 191.937286,463.904480   C175.347031,462.734955 158.556168,462.505615 142.714264,456.317474   C123.542625,448.828705 107.466316,437.218781 94.489876,421.131165   C85.797943,410.355347 78.355408,398.882721 74.998978,385.441620   C72.524979,375.534241 70.368324,365.257050 70.209480,355.111145   C69.417671,304.535889 68.973648,253.948044 69.179306,203.367767   C69.260353,183.431854 70.985672,163.416779 77.113503,144.210464   C80.956596,132.165161 87.446846,121.435921 95.688438,111.840508   C104.387634,101.712318 114.364906,93.150444 125.977638,86.375954   C136.278091,80.366989 147.393143,76.923203 158.960068,75.138550   C169.480118,73.515434 180.152588,72.520676 190.791275,72.105873   C209.201965,71.388062 227.637894,71.092972 246.064316,71.045860   C297.548370,70.914238 349.036804,70.639793 400.515411,71.185493   C419.943939,71.391441 439.502045,73.075943 458.159698,79.206856   C470.783752,83.355133 481.905518,90.416786 491.924225,99.307945   C501.072327,107.426537 508.687195,116.643158 515.074890,127.049095   C521.494812,137.507538 524.972595,148.975037 526.858765,160.861328   C528.500732,171.208984 529.739258,181.728882 529.873352,192.189102   C530.493835,240.601898 530.723022,289.020172 530.969116,337.437073   C531.053528,354.045227 529.792419,370.599091 524.863281,386.531311   C521.245728,398.224213 515.294861,408.961548 507.764069,418.628998   C499.010010,429.866852 488.704590,439.589264 476.450562,446.957123   C464.668182,454.041382 452.237366,459.899658 438.298645,460.920959   C420.041870,462.258698 401.735138,462.900299 383.463745,464.060028   C377.772675,464.421234 371.998688,464.978668 366.488495,466.352234   C357.068054,468.700562 351.541351,476.108215 346.747711,483.796204   C339.180573,495.932159 332.489166,508.629211 324.633484,520.566528   C314.179535,536.451965 290.552185,537.270813 279.253815,524.752075  M413.698578,287.938934   C416.946014,278.917572 415.912537,270.567902 409.376770,263.348755   C403.262787,256.595459 395.475159,254.430542 386.738525,256.575775   C376.261261,259.148376 369.034607,268.751587 369.215393,279.217651   C369.398315,289.809906 376.779663,298.852356 387.351379,301.434967   C397.695038,303.961884 407.811554,298.953766 413.698578,287.938934  M222.204147,296.768799   C231.174484,288.308014 233.276016,277.196167 227.739380,267.501465   C222.546143,258.408081 211.527222,253.738617 201.686951,256.632904   C192.204163,259.422058 186.329239,265.700989 184.881668,275.534760   C183.434921,285.363098 187.070084,293.280457 195.511902,298.475983   C204.337479,303.907654 213.190384,303.156372 222.204147,296.768799  M292.152283,300.661224   C308.861664,306.785919 326.433350,292.163269 322.537781,273.950500   C320.232574,263.173126 310.812164,255.817871 299.924866,255.869400   C288.955658,255.921310 279.822388,263.298859 277.392365,274.070312   C274.961670,284.844910 280.537231,295.249878 292.152283,300.661224  z"/>
<path fill="#FDFEFF" opacity="1.000000" stroke="none" d=" M413.497498,288.264984   C407.811554,298.953766 397.695038,303.961884 387.351379,301.434967   C376.779663,298.852356 369.398315,289.809906 369.215393,279.217651   C369.034607,268.751587 376.261261,259.148376 386.738525,256.575775   C395.475159,254.430542 403.262787,256.595459 409.376770,263.348755   C415.912537,270.567902 416.946014,278.917572 413.497498,288.264984  z"/>
<path fill="#FCFEFF" opacity="1.000000" stroke="none" d=" M221.919312,296.995911   C213.190384,303.156372 204.337479,303.907654 195.511902,298.475983   C187.070084,293.280457 183.434921,285.363098 184.881668,275.534760   C186.329239,265.700989 192.204163,259.422058 201.686951,256.632904   C211.527222,253.738617 222.546143,258.408081 227.739380,267.501465   C233.276016,277.196167 231.174484,288.308014 221.919312,296.995911  z"/>
<path fill="#FDFEFF" opacity="1.000000" stroke="none" d=" M291.800415,300.481384   C280.537231,295.249878 274.961670,284.844910 277.392365,274.070312   C279.822388,263.298859 288.955658,255.921310 299.924866,255.869400   C310.812164,255.817871 320.232574,263.173126 322.537781,273.950500   C326.433350,292.163269 308.861664,306.785919 291.800415,300.481384  z"/>
</svg>